<svg id="Capa_1" data-name="Capa 1" xmlns="http://www.w3.org/2000/svg" viewBox="0 0 964.9 152.41"><defs><style>.cls-1{fill:red;}.cls-2{fill:#12142d;}</style></defs><path class="cls-1" d="M67.84,27c-4.42-3.35-16.43,0-18.13-5.28-2.31-3.35,1-6.82,7.33-9.32,5.44-1.86,11.25-2,14.92.46,5.64,3.1-2.6,8.23.55,12a9.83,9.83,0,0,0,7.84,3.35c5-.57,8-5.6,5.29-7.7-1.4-2.06-4.57-3-5.24-4.77C78.35,13,79.9,10,84.18,8.32,89,6.41,96.11,6.54,100.21,9s4.17,6.44-1.1,9c-1.2.56-15.17,6.25-3.72,11.73,4.83,2.4,9.36.21,12-1.24,4.2-3.56-1.44-7.87,3.8-11.55,5-3.74,12.6-3.46,19.92.36,7.84,4.1,9.33,9.24,1.42,12.5S117.25,28.65,110.91,31c-2.6,1.52-6.42,4.44-3.51,8.34,9.25,12.43,22.1.9,23.37,0,5.93-3.71,15.81-2.94,24.62,2.27,9.4,5.55,13.44,15.22,8.16,20.76-4.91,5.16-15.47,4.55-24.62-.13-5.48-2.89-8.34-7.5-13.66-10.32-4.85-3.84-15.6-3.26-17.51,1.47-1,3.3,2.29,8.18,5.8,11,10,8.35,24.6.77,37.77,13.73,5.81,5.7,9.53,11.92,11,18,1.64,6.61.66,13-3,18.1-9.22,12.84-25.08,12.36-39.07-3-8.47-8.19-9.24-16.6-9.22-24.2,0-6.91.7-13.24-3.18-18.32-2.76-3.51-8.45-6.91-12.88-6.55-6.54.71-11.3,11.92-7.43,18.06,3.54,5.78,9.26,9.68,12.18,16.58a39,39,0,0,1,2.32,19.53,36.62,36.62,0,0,1-9.52,20.43c-13.19,13.8-34.69,11.07-41.31-7.77a38.87,38.87,0,0,1,0-25.15A35.88,35.88,0,0,1,63.08,86.71c8.71-6.1,22.14-14.92,15.28-23.89-5.07-6.64-11.14-7.34-19.07-1.45-8.7,6.44-6.12,16.47-18.89,26.93C24,102.06,11.73,99.18,9.32,84.8c-2-12,5.43-21.23,19.82-26.6,12-4.64,17.64,2.19,27.28-1.51,4.44-2.45,10.06-6,8.79-11.09-3.68-10.8-21.31-1.26-24,0-8.58,4.11-18.07,3-20-2.29C19.45,38.29,26,31.58,33.34,28.64c6.31-2.54,12.56-2.37,16.48.14,2.28,1.35,2.46,4,4.84,6,2.11,2.84,11.88,2.18,14.54-1.13,1.62-2.17.6-5.09-1.36-6.65"/><path class="cls-2" d="M283.92,45.49a26.28,26.28,0,0,0,2.66-.23c.77,0,1.65-.07,2.36-.07s1.66,0,2.38.07,1.52.13,2.34.23q.31,2.77.48,6.53c.1,2.52.16,4.8.16,6.85a29.31,29.31,0,0,1,8.61-10,24.86,24.86,0,0,1,14.61-4.34h1.61c.57,0,1.21.47,1.93.57a31.69,31.69,0,0,1,.46,5.13,26.8,26.8,0,0,1-.46,4.95,11.76,11.76,0,0,0-1.93,0h-1.46c-7,0-12.56,2.13-16.76,6.54s-6.32,11.66-6.32,21.91v40.26a13.66,13.66,0,0,1-2.52.24c-1.08,0-1.92.07-2.53.07s-1.61,0-2.73-.07-.76-.14-2.89-.24V45.49Z"/><path class="cls-2" d="M354.88,83.46l28.12-38a29.89,29.89,0,0,1,5.38-.46,44.54,44.54,0,0,1,6.46.46l-28,36.9,33.05,41.49a33.3,33.3,0,0,1-5.53.47,46.23,46.23,0,0,1-6.61-.47L354.88,83.46ZM337.29,10.91c2.14-.1,1.95-.18,3-.23s2.16-.08,2.78-.08,1.23,0,2.36.08a12.3,12.3,0,0,1,2.5.23v113a11,11,0,0,1-2.38.24c-1.13,0-1.84.07-2.35.07s-1.89,0-3-.07-.83-.14-3-.24v-113Z"/><path class="cls-2" d="M414.15,45.49c2.13-.1,1.82-.17,3-.23s2.11-.07,2.63-.07,1.47,0,2.54.07a14.42,14.42,0,0,1,2.55.23V89.61a45.23,45.23,0,0,0,1.77,13.6,18.5,18.5,0,0,0,5,8.31,18.26,18.26,0,0,0,8.08,4.14,46,46,0,0,0,10.78,1.16,73.73,73.73,0,0,0,9.52-.55,53.39,53.39,0,0,0,7.52-1.46V45.49a8.55,8.55,0,0,1,2.17-.23c1.12,0,1.72-.07,2.23-.07s1,0,2.07.07a7.79,7.79,0,0,1,2.07.23v76.39c-2.13,1-7.67,1.93-12.33,2.7a86.92,86.92,0,0,1-14.19,1.15A63.47,63.47,0,0,1,436,124.35,25.2,25.2,0,0,1,425,119a27.2,27.2,0,0,1-7.77-10.83,48.6,48.6,0,0,1-3.08-18V45.49Z"/><path class="cls-2" d="M501.67,113.13a46.2,46.2,0,0,0,8.76,2.38,57,57,0,0,0,10.3,1q9.22,0,14.6-4.07t5.39-10.07a13.07,13.07,0,0,0-1.62-6.84A14.42,14.42,0,0,0,534.8,91a24.6,24.6,0,0,0-6.08-3l-6.91-2.39c-2.56-.81-5.1-1.74-7.61-2.76a26.29,26.29,0,0,1-6.69-3.92,17.07,17.07,0,0,1-6.45-14.22,19.08,19.08,0,0,1,6.84-15.22q6.84-5.84,21.13-5.84a62.13,62.13,0,0,1,11.61,1.07A50.73,50.73,0,0,1,549.32,47a64.34,64.34,0,0,1-2.15,8.76A82.49,82.49,0,0,0,539,53.64a49,49,0,0,0-10.38-1.08q-9.37,0-13.29,3.31a10.8,10.8,0,0,0-3.92,8.69,9.18,9.18,0,0,0,1.3,5,11.71,11.71,0,0,0,3.54,3.54,25.52,25.52,0,0,0,5.07,2.53q2.85,1.08,6.07,2,4.15,1.38,8.38,3a31,31,0,0,1,7.69,4.22,21,21,0,0,1,5.68,6.62,20.23,20.23,0,0,1,2.23,10,22.48,22.48,0,0,1-2.23,10.07,22.23,22.23,0,0,1-6.22,7.68,28.92,28.92,0,0,1-9.53,4.84,41.68,41.68,0,0,1-12.15,1.69,84.49,84.49,0,0,1-13.14-.92,39.53,39.53,0,0,1-9.3-2.46,45.34,45.34,0,0,1,2.92-9.22"/><path class="cls-2" d="M251.41,50.18c-4.82-4.35-11.87-6.53-21.81-6.53a82.51,82.51,0,0,0-12,.85,66,66,0,0,0-9.84,2.07,24.42,24.42,0,0,0,.56,4.92,14,14,0,0,0,1.34,4,72.19,72.19,0,0,1,9.12-2.07,70.47,70.47,0,0,1,11.34-.85c6.25,0,11.2,1.57,14.38,4.69s5.24,8.07,5.24,14.84v4.76l-.2,0v8.92l.2,0v29.35c-4.27.52-5.85.92-8.62,1.23a89.17,89.17,0,0,1-9.38.47,49.55,49.55,0,0,1-7.38-.55,20.47,20.47,0,0,1-6.75-2.15,12.73,12.73,0,0,1-5-4.68,15.25,15.25,0,0,1-1.89-8.15A14.07,14.07,0,0,1,217.11,89c4.2-2.87,10.26-4.3,17.95-4.3,1.12,0,2.32,0,3.54.09l-1.37-8.93c-1.47,0-3-.07-4.56-.07a47.06,47.06,0,0,0-13,1.69,29.29,29.29,0,0,0-10.15,5,23.19,23.19,0,0,0-6.62,8.15,24.56,24.56,0,0,0-2.41,11c0,8.51,2.7,14.65,8.19,18.44s12.9,5.69,22.44,5.69a104.26,104.26,0,0,0,14.43-1.07c5.12-.73,10.6-1.44,12.74-2.16V70.7c0-9.32-2.08-16.16-6.89-20.52"/><path class="cls-1" d="M713.8,78.66a33.91,33.91,0,0,0-1.23-9.82,24.41,24.41,0,0,0-3.84-8.29A19.83,19.83,0,0,0,702,54.83a21.54,21.54,0,0,0-10-2.21c-7.17,0-12.76,2.62-16.75,7s-6.41,10.47-7.23,19ZM667.68,87.2c0,8.54,2.41,17.65,7.23,22.57s12,7.13,21.67,7.13a54.67,54.67,0,0,0,10.84-1.12,72.39,72.39,0,0,0,9.76-2.74,18,18,0,0,1,1.23,4.11,43.06,43.06,0,0,1,.62,4.44,44.93,44.93,0,0,1-10.46,3.07,73.8,73.8,0,0,1-13.07,1.07,45.76,45.76,0,0,1-17.44-3,31.33,31.33,0,0,1-12-8.37,34.13,34.13,0,0,1-6.92-12.83,57.31,57.31,0,0,1-2.23-16.38A60.27,60.27,0,0,1,659,69a39.4,39.4,0,0,1,6.3-13.22,29.17,29.17,0,0,1,10.84-8.91A35.62,35.62,0,0,1,692,43.65a34,34,0,0,1,13.68,2.61,28.06,28.06,0,0,1,10.07,7.3,31.44,31.44,0,0,1,6.15,11.22A46.9,46.9,0,0,1,723.94,79c0,.93,0,2.59-.07,4s-.13,2-.23,4.18Z"/><path class="cls-1" d="M769.44,83l19.68-37.51a43.66,43.66,0,0,1,6-.46,32.78,32.78,0,0,1,5.23.46l-20,36.74,23,41.65a40,40,0,0,1-6,.47,28.18,28.18,0,0,1-5.23-.47L769.44,83ZM757.6,83,737,45.49a33.51,33.51,0,0,1,5.38-.46,44.6,44.6,0,0,1,6.14.46L768.21,83l-22.75,40.88a29.71,29.71,0,0,1-5.22.47,38.16,38.16,0,0,1-6-.47L757.6,83Z"/><path class="cls-1" d="M819.79,45.49a11.85,11.85,0,0,1,2.42-.23c1.12,0,1.85-.07,2.36-.07s1.87,0,2.95.07.81.13,2.94.23V89.61c0,5.54.11,10.07,1.23,13.6s2.56,6.3,4.77,8.31a17.76,17.76,0,0,0,8,4.14,45.2,45.2,0,0,0,10.7,1.16,64.68,64.68,0,0,0,9-.55,45.15,45.15,0,0,0,7-1.46V45.49a16.32,16.32,0,0,1,2.7-.23c1.12,0,2-.07,2.5-.07s1.66,0,2.73.07a17.73,17.73,0,0,1,2.74.23v76.39c-4.27,1-8.2,1.93-12.86,2.7a90.26,90.26,0,0,1-14.46,1.15,64.64,64.64,0,0,1-13.65-1.38A25.38,25.38,0,0,1,829.65,119c-3.13-2.61-5.43-6.22-7.28-10.83s-2.58-10.6-2.58-18V45.49Z"/><path class="cls-1" d="M906.25,113.13a46,46,0,0,0,8.76,2.38,56.93,56.93,0,0,0,10.3,1q9.23,0,14.6-4.07t5.38-10.07a13.17,13.17,0,0,0-1.61-6.84A14.45,14.45,0,0,0,939.37,91a24.53,24.53,0,0,0-6.07-3c-2.26-.77-4.56-1.57-6.92-2.39-2.56-.81-5.1-1.74-7.6-2.76a26,26,0,0,1-6.69-3.92,17,17,0,0,1-6.46-14.22,19.08,19.08,0,0,1,6.84-15.22q6.84-5.84,21.14-5.84a62.1,62.1,0,0,1,11.6,1.07A50.88,50.88,0,0,1,953.9,47a64.34,64.34,0,0,1-2.15,8.76,82.78,82.78,0,0,0-8.23-2.15,49,49,0,0,0-10.37-1.08q-9.39,0-13.3,3.31a10.83,10.83,0,0,0-3.92,8.69,9.18,9.18,0,0,0,1.31,5,11.6,11.6,0,0,0,3.54,3.54,25.7,25.7,0,0,0,5.06,2.53q2.85,1.08,6.07,2c2.78.92,5.56,1.92,8.39,3A31.07,31.07,0,0,1,948,84.84a21,21,0,0,1,5.69,6.62,20.34,20.34,0,0,1,2.23,10,22.62,22.62,0,0,1-2.23,10.07,22.25,22.25,0,0,1-6.23,7.68,28.82,28.82,0,0,1-9.53,4.84,41.66,41.66,0,0,1-12.14,1.69,84.4,84.4,0,0,1-13.14-.92,39.26,39.26,0,0,1-9.3-2.46,45.34,45.34,0,0,1,2.92-9.22"/><path class="cls-2" d="M582.88,49.41c-.08-1.47-.17-2.79-.29-3.92-.82-.1-1.54-.18-2.25-.23s-1.37-.07-2.18-.07-1.22,0-2,.07a7.86,7.86,0,0,0-1.9.23v78.39a7,7,0,0,0,2.05.24c1.13,0,1.38.07,1.9.07s1.3,0,2.37-.07a9.33,9.33,0,0,0,2.22-.24V85.15c0-.77,0-1.54.07-2.29V49.41Z"/><path class="cls-1" d="M629.8,51.72c-4.1-5.38-10.89-8.07-19.92-8.07a29.12,29.12,0,0,0-9.37,1.46,33,33,0,0,0-4.67,2l-1,10.57a22.66,22.66,0,0,1,4.26-2.5A24.22,24.22,0,0,1,609.26,53c5.43,0,9.48,1.89,12.2,5.68s4,10.05,4,18.76v46.41a15.85,15.85,0,0,0,2.7.24c1.12,0,2,.07,2.55.07s1.57,0,2.65-.07.64-.14,2.77-.24V74.39c0-9.73-2.28-17.29-6.38-22.67"/></svg>